<?xml version="1.0" encoding="UTF-8"?>
<svg width="230px" height="57px" viewBox="0 0 230 57" version="1.1" xmlns="http://www.w3.org/2000/svg" xmlns:xlink="http://www.w3.org/1999/xlink">
    <!-- Generator: Sketch 58 (84663) - https://sketch.com -->
    <title>logo/bemondi/desktop</title>
    <desc>Created with Sketch.</desc>
    <g id="logo/bemondi/desktop" stroke="none" stroke-width="1" fill="none" fill-rule="evenodd">
        <g id="logo_lift_horizontal" transform="translate(5.000000, 2.000000)" fill="#1D1D1B" fill-rule="nonzero">
            <g id="Group" transform="translate(53.769968, 14.408946)">
                <path d="M0.253035144,22.0492013 L2.65686901,22.0492013 L2.65686901,1.82044728 L0.253035144,1.82044728 L0.253035144,0.794249201 L12.7361022,0.794249201 C15.0661342,0.794249201 16.9041534,1.27220447 18.2571885,2.23162939 C19.6067093,3.19105431 20.2814696,4.48434505 20.2814696,6.12204473 C20.2814696,7.47859425 19.74377,8.57859425 18.6683706,9.42204473 C17.5929712,10.2690096 15.9974441,10.841853 13.8782748,11.1440895 L13.8782748,11.428754 C16.2961661,11.6290735 18.1166134,12.1984026 19.3396166,13.1332268 C20.5591054,14.0680511 21.170607,15.3543131 21.170607,16.9884984 C21.170607,18.8827476 20.3904153,20.3833866 18.8335463,21.4904153 C17.2766773,22.6009585 15.1645367,23.1527157 12.500639,23.1527157 L0.253035144,23.1527157 L0.253035144,22.0492013 Z M8.23067093,10.8769968 L10.3638978,10.8769968 C11.9980831,10.8769968 13.0734824,10.599361 13.5900958,10.0370607 C14.1031949,9.47827476 14.3632588,8.24472843 14.3632588,6.3399361 C14.3632588,4.26645367 14.1383387,2.99776358 13.6814696,2.52683706 C13.228115,2.05591054 12.0543131,1.82044728 10.1600639,1.82044728 L8.22715655,1.82044728 L8.22715655,10.8769968 L8.23067093,10.8769968 Z M8.23067093,22.0492013 L11.2214058,22.0492013 C12.7782748,22.0492013 13.7904153,21.7434505 14.2613419,21.1354633 C14.7322684,20.5239617 14.9677316,19.1217252 14.9677316,16.9252396 C14.9677316,14.8763578 14.6865815,13.5127796 14.1277955,12.8415335 C13.5690096,12.1702875 12.4408946,11.8329073 10.7504792,11.8329073 L8.23067093,11.8329073 L8.23067093,22.0492013 L8.23067093,22.0492013 Z" id="Shape"></path>
                <path d="M24.8079872,23.1597444 L24.8079872,22.0492013 L27.528115,22.0492013 L27.528115,1.82044728 L25.1910543,1.82044728 L25.1910543,0.794249201 L43.841853,0.794249201 L43.9086262,6.67380192 L42.7840256,6.67380192 C42.0214058,4.76900958 41.2482428,3.4827476 40.4645367,2.81853035 C39.6808307,2.15079872 38.5386581,1.82044728 37.0380192,1.82044728 L33.1722045,1.82044728 L33.1722045,11.0105431 C33.2600639,11.0210863 33.3654952,11.028115 33.4814696,11.0351438 C33.6009585,11.0421725 33.7591054,11.0421725 33.9594249,11.0421725 C35.1824281,11.0421725 36.1031949,10.7223642 36.7322684,10.0757188 C37.3578275,9.43258786 37.7690096,8.38881789 37.9587859,6.94089457 L39.0833866,6.94089457 L39.0833866,16.4859425 L37.9587859,16.4859425 C37.8357827,14.9396166 37.45623,13.8290735 36.8166134,13.1578275 C36.1769968,12.4865815 35.1824281,12.1492013 33.8258786,12.1492013 L33.1722045,12.1492013 L33.1722045,22.0456869 L36.9185304,22.0456869 C38.7670927,22.0456869 40.2115016,21.5607029 41.2552716,20.5837061 C42.2955272,19.6102236 43.114377,17.9795527 43.7083067,15.6952077 L44.7661342,15.6952077 L44.5306709,23.15623 L24.8079872,23.1597444 Z" id="Path"></path>
                <path d="M47.4968051,23.1597444 L47.4968051,22.0492013 L49.1415335,22.0492013 C49.5773163,22.0492013 49.9111821,21.9086262 50.1396166,21.627476 C50.3680511,21.3498403 50.4840256,20.9386581 50.4840256,20.4009585 L50.4840256,1.81693291 L47.4932907,1.81693291 L47.4932907,0.790734824 L57.1543131,0.790734824 L61.086901,13.6955272 L65.2549521,0.790734824 L74.4134185,0.790734824 L74.4134185,1.81693291 L71.5246006,1.81693291 L71.5246006,22.0456869 L74.3290735,22.0456869 L74.3290735,23.15623 L62.9881789,23.15623 L62.9881789,22.0456869 L66.0105431,22.0456869 L66.0105431,2.10159744 L65.94377,2.10159744 L59.3402556,23.1527157 L58.1629393,23.1527157 L51.6613419,1.88019169 L51.6613419,20.2955272 C51.6613419,20.9456869 51.7808307,21.3990415 52.0162939,21.6555911 C52.2517572,21.9121406 52.6699681,22.0421725 53.2779553,22.0421725 L54.757508,22.0421725 L54.757508,23.1527157 L47.4968051,23.1527157 L47.4968051,23.1597444 Z" id="Path"></path>
                <path d="M77.0948882,12.0015974 C77.0948882,10.5009585 77.3865815,9.0600639 77.9664537,7.68242812 C78.5463259,6.30479233 79.3932907,5.03961661 80.5003195,3.88338658 C81.6881789,2.68498403 82.9463259,1.79584665 84.2782748,1.21246006 C85.6102236,0.629073482 87.0651757,0.340894569 88.643131,0.340894569 C90.2316294,0.340894569 91.6936102,0.632587859 93.0255591,1.21246006 C94.357508,1.79584665 95.615655,2.68498403 96.8035144,3.88338658 C97.9210863,5.03610224 98.7750799,6.30479233 99.3654952,7.68945687 C99.9523962,9.07412141 100.247604,10.5115016 100.247604,11.9980831 C100.247604,13.5233227 99.9523962,14.9782748 99.3654952,16.3664537 C98.7785942,17.7546326 97.9246006,19.0198083 96.8035144,20.1619808 C95.6507987,21.3498403 94.4031949,22.2319489 93.0571885,22.8083067 C91.7146965,23.3846645 90.2421725,23.6728435 88.643131,23.6728435 C87.0546326,23.6728435 85.5926518,23.3846645 84.2607029,22.8083067 C82.928754,22.2319489 81.6741214,21.3498403 80.5003195,20.1619808 C79.3932907,19.0198083 78.5463259,17.7511182 77.9664537,16.3559105 C77.3830671,14.9677316 77.0948882,13.5127796 77.0948882,12.0015974 Z M83.7792332,12.0015974 C83.7792332,14.8693291 83.8284345,16.8444089 83.9233227,17.9233227 C84.0182109,19.0057508 84.186901,19.8070288 84.4364217,20.3341853 C84.7948882,21.1530351 85.3044728,21.7399361 85.9616613,22.0984026 C86.6223642,22.456869 87.515016,22.6361022 88.6466454,22.6361022 C89.7888179,22.6361022 90.6884984,22.456869 91.3456869,22.0984026 C92.0063898,21.7399361 92.5159744,21.1530351 92.8709265,20.3341853 C93.127476,19.7613419 93.3067093,18.9038339 93.4086262,17.7616613 C93.5105431,16.6194888 93.5597444,14.6971246 93.5597444,11.9980831 C93.5597444,9.30958466 93.5105431,7.3942492 93.4086262,6.25207668 C93.3067093,5.10990415 93.127476,4.25239617 92.8709265,3.67955272 C92.5124601,2.86421725 92.0028754,2.27380192 91.3456869,1.91533546 C90.684984,1.55686901 89.7853035,1.37763578 88.6466454,1.37763578 C87.515016,1.37763578 86.6223642,1.55686901 85.9616613,1.91533546 C85.3009585,2.27380192 84.7913738,2.86070288 84.4364217,3.67955272 C84.1904153,4.20670927 84.0182109,5.0115016 83.9233227,6.09041534 C83.8284345,7.1798722 83.7792332,9.14792332 83.7792332,12.0015974 Z" id="Shape"></path>
                <path d="M103.178594,23.1597444 L103.178594,22.0492013 L104.907668,22.0492013 C105.353994,22.0492013 105.666773,21.9507987 105.842492,21.7539936 C106.014696,21.5571885 106.102556,21.1741214 106.102556,20.6047923 L106.102556,2.99776358 C106.102556,2.51629393 106.007668,2.2 105.817891,2.04888179 C105.628115,1.89776358 105.23099,1.82396166 104.623003,1.82396166 L103.245367,1.82396166 L103.245367,0.797763578 L112.301917,0.797763578 L121.727476,13.6674121 L121.727476,3.48626198 C121.727476,2.80447284 121.622045,2.35463259 121.418211,2.14025559 C121.210863,1.92939297 120.764537,1.82044728 120.082748,1.82044728 L118.638339,1.82044728 L118.638339,0.794249201 L125.797125,0.794249201 L125.797125,1.82044728 L124.486262,1.82044728 C123.927476,1.82044728 123.540895,1.93642173 123.326518,2.16485623 C123.115655,2.39329073 123.006709,2.83610224 123.006709,3.4827476 L123.006709,23.6763578 L122.082428,23.6763578 L107.448562,3.54952077 L107.448562,20.8226837 C107.448562,21.2162939 107.557508,21.5185304 107.775399,21.729393 C107.993291,21.9402556 108.309585,22.0492013 108.724281,22.0492013 L110.723962,22.0492013 L110.723962,23.1597444 L103.178594,23.1597444 L103.178594,23.1597444 Z" id="Path"></path>
                <path d="M128.506709,22.0492013 L131.226837,22.0492013 L131.226837,1.82044728 L128.506709,1.82044728 L128.506709,0.794249201 L139.967093,0.794249201 C141.601278,0.794249201 143.003514,0.952396166 144.166773,1.26517572 C145.333546,1.57795527 146.394888,2.08753994 147.361342,2.79392971 C148.738978,3.78146965 149.817891,5.08530351 150.594569,6.70894569 C151.371246,8.33258786 151.761342,10.086262 151.761342,11.9664537 C151.761342,13.8607029 151.364217,15.6249201 150.566454,17.2591054 C149.772204,18.8932907 148.66869,20.2182109 147.255911,21.2233227 C146.324601,21.8840256 145.25623,22.372524 144.047284,22.6853035 C142.838339,22.9980831 141.432588,23.15623 139.830032,23.15623 L128.506709,23.15623 L128.506709,22.0492013 L128.506709,22.0492013 Z M136.856869,22.0492013 L139.714058,22.0492013 C141.003834,22.0492013 141.938658,21.9543131 142.51853,21.7645367 C143.101917,21.5747604 143.586901,21.2373802 143.980511,20.7559105 C144.483067,20.1408946 144.841534,19.286901 145.048882,18.2009585 C145.25623,17.115016 145.358147,15.4738019 145.358147,13.2773163 L145.358147,11.699361 C145.358147,9.23578275 145.287859,7.4715655 145.147284,6.40670927 C145.006709,5.34185304 144.767732,4.4913738 144.433866,3.85175719 C144.029712,3.10319489 143.50607,2.57603834 142.862939,2.27380192 C142.219808,1.9715655 141.16901,1.82044728 139.714058,1.82044728 L136.856869,1.82044728 L136.856869,22.0492013 L136.856869,22.0492013 Z" id="Shape"></path>
                <polygon id="Path" points="154.825879 23.1597444 154.825879 22.0492013 157.58115 22.0492013 157.58115 1.82044728 154.825879 1.82044728 154.825879 0.794249201 166.117572 0.794249201 166.117572 1.82044728 163.3623 1.82044728 163.3623 22.0492013 166.117572 22.0492013 166.117572 23.1597444"></polygon>
            </g>
            <g id="Group">
                <path d="M23.5357827,6.77220447 L23.5357827,6.77220447 L24.9099042,1.59201278 C24.9099042,1.59201278 23.5884984,1.96453674 22.3654952,3.13482428 C21.7961661,2.06645367 20.9597444,0.998083067 19.7367412,0.291693291 C18.3977636,0.966453674 17.5261981,2.06645367 16.9638978,3.17348243 C15.8111821,1.9715655 14.5635783,1.59201278 14.5635783,1.59201278 L15.9376997,6.77220447 L23.5357827,6.77220447 Z" id="Path"></path>
                <path d="M19.7543131,29.7632588 C21.2127796,29.7632588 22.3971246,28.3469649 22.3971246,26.6073482 C22.3971246,24.8677316 21.2092652,23.4514377 19.7543131,23.4514377 C18.2958466,23.4514377 17.1115016,24.8677316 17.1115016,26.6073482 C17.1115016,28.3469649 18.2958466,29.7632588 19.7543131,29.7632588 Z" id="Path"></path>
                <path d="M8.79648562,19.1041534 C7.7,21.058147 8.68753994,22.2003195 9.33067093,23.4865815 C9.98434505,24.7939297 8.8456869,26.3543131 8.8456869,26.3543131 C8.8456869,26.3543131 10.1354633,26.3543131 10.1846645,26.3543131 C11.3408946,24.7939297 10.6872204,23.0824281 10.6872204,22.1265176 C10.6872204,21.170607 11.428754,20.1760383 11.428754,20.1760383 L15.7022364,20.1760383 L15.7022364,15.5124601 L19.7472843,15.5124601 L23.7923323,15.5124601 L23.7923323,20.1760383 L28.1185304,20.1760383 C28.1185304,20.1760383 28.8600639,21.170607 28.8600639,22.1265176 C28.8600639,23.0824281 28.2063898,24.7939297 29.3626198,26.3543131 C29.4118211,26.3543131 30.7015974,26.3543131 30.7015974,26.3543131 C30.7015974,26.3543131 29.5629393,24.7939297 30.2201278,23.4865815 C30.8738019,22.1792332 31.8929712,21.0194888 30.7015974,19.0057508 L30.7015974,11.5271565 L32.3884984,11.5271565 L32.3884984,9.61533546 L19.74377,9.61533546 L7.09904153,9.61533546 L7.09904153,11.5271565 L8.78594249,11.5271565 L8.78594249,19.1041534 L8.79648562,19.1041534 Z M26.3297125,13.041853 L28.1290735,13.041853 L28.1290735,13.9415335 L26.3297125,13.9415335 L26.3297125,13.041853 Z M26.3297125,16.584345 L28.1290735,16.584345 L28.1290735,17.4840256 L26.3297125,17.4840256 L26.3297125,16.584345 Z M15.5968051,13.041853 L19.7543131,13.041853 L23.9118211,13.041853 L23.9118211,13.9415335 L19.7543131,13.9415335 L15.5968051,13.9415335 L15.5968051,13.041853 Z M11.3830671,13.041853 L13.1824281,13.041853 L13.1824281,13.9415335 L11.3830671,13.9415335 L11.3830671,13.041853 Z M11.3830671,16.584345 L13.1824281,16.584345 L13.1824281,17.4840256 L11.3830671,17.4840256 L11.3830671,16.584345 Z" id="Shape"></path>
                <g transform="translate(0.702875, 15.111821)" id="Path">
                    <path d="M32.1741214,18.1095847 C32.971885,14.1910543 26.5546326,11.5587859 24.6955272,16.0817891 C26.4913738,15.1118211 28.8284345,16.5175719 28.9057508,18.9495208 C28.9830671,21.3814696 26.558147,22.298722 26.558147,22.298722 C26.558147,22.298722 34.1105431,25.6795527 37.3332268,18.3520767 C40.8089457,10.4482428 31.7172524,5.34536741 33.5833866,0.0843450479 C33.5833866,0.0843450479 31.0003195,2.57252396 31.8929712,6.63162939 C32.7821086,10.6872204 35.6498403,13.9591054 32.1741214,18.1095847 Z"></path>
                    <path d="M0.822364217,18.3520767 C4.04504792,25.6795527 11.5974441,22.298722 11.5974441,22.298722 C11.5974441,22.298722 9.17252396,21.3814696 9.24984026,18.9495208 C9.32715655,16.5175719 11.6642173,15.1118211 13.4600639,16.0817891 C11.5974441,11.5552716 5.18019169,14.1910543 5.98146965,18.1095847 C2.5057508,13.9591054 5.36996805,10.6872204 6.26261981,6.63162939 C7.15527157,2.57603834 4.57220447,0.0843450479 4.57220447,0.0843450479 C6.43833866,5.34536741 -2.65686901,10.4482428 0.822364217,18.3520767 Z"></path>
                </g>
                <path d="M39.3645367,35.6744409 C38.4507987,38.0325879 36.7709265,40.2958466 33.6501597,41.2412141 C30.5891374,42.1690096 28.0587859,41.0198083 26.7900958,40.2185304 C26.7690096,40.2079872 26.7514377,40.1974441 26.7514377,40.1974441 C27.6686901,42.2814696 29.0744409,46.8571885 25.5460064,47.9325879 C20.6961661,49.4121406 19.7367412,42.8472843 19.7367412,42.8472843 C19.7367412,42.8472843 18.7773163,49.4121406 13.927476,47.9325879 C10.4025559,46.8571885 11.8047923,42.2744409 12.7220447,40.1904153 C11.4638978,40.9916933 8.91597444,42.1760383 5.82332268,41.2376997 C2.70255591,40.2888179 1.01916933,38.0290735 0.108945687,35.6709265 C-0.400638978,38.956869 1.27571885,46.0629393 8.24121406,45.0261981 C7.67188498,47.9325879 9.52044728,51.1798722 13.0277955,51.6507987 C16.5351438,52.1217252 19.4134185,49.9603834 19.7367412,47.6584665 C20.0635783,49.9603834 22.9383387,52.1217252 26.4456869,51.6507987 C29.9530351,51.1798722 31.8015974,47.9361022 31.2322684,45.0261981 C38.201278,46.0664537 39.8741214,38.9603834 39.3645367,35.6744409 Z" id="Path"></path>
                <path d="M25.3140575,37.2559105 L25.3140575,35.284345 C25.3140575,34.3284345 24.1648562,33.4955272 22.4674121,33.0597444 L22.4674121,30.6102236 C23.4795527,29.6753994 24.1297125,28.2309904 24.1297125,26.6108626 C24.1297125,23.7923323 22.1722045,21.5079872 19.7543131,21.5079872 C17.3399361,21.5079872 15.3789137,23.7923323 15.3789137,26.6108626 C15.3789137,28.2380192 16.0325879,29.6824281 17.0517572,30.6172524 L17.0517572,33.0597444 C15.3472843,33.4955272 14.1945687,34.3284345 14.1945687,35.2878594 L14.1945687,37.2594249 C14.1945687,37.5335463 14.384345,37.7619808 14.6408946,37.8217252 C14.0996805,39.7897764 14.9220447,40.9108626 15.4351438,42.2920128 C16.0290735,43.8875399 14.9958466,45.7853035 14.9958466,45.7853035 C14.9958466,45.7853035 16.1696486,45.7853035 16.2153355,45.7853035 C17.5824281,43.5079872 16.6722045,41.8035144 16.6722045,40.6367412 C16.6722045,39.4734824 17.8635783,37.8392971 17.8635783,37.8392971 L21.6942492,37.8392971 C21.6942492,37.8392971 22.885623,39.4699681 22.885623,40.6367412 C22.885623,41.8 21.9753994,43.5079872 23.342492,45.7853035 C23.3881789,45.7853035 24.5619808,45.7853035 24.5619808,45.7853035 C24.5619808,45.7853035 23.5252396,43.8875399 24.1226837,42.2920128 C24.6392971,40.9108626 25.4616613,39.786262 24.9134185,37.8076677 C25.1453674,37.7268371 25.3140575,37.5124601 25.3140575,37.2559105 Z M16.2680511,26.6073482 C16.2680511,24.4038339 17.8319489,22.6115016 19.7543131,22.6115016 C21.6766773,22.6115016 23.2405751,24.4038339 23.2405751,26.6073482 C23.2405751,28.8108626 21.6766773,30.6031949 19.7543131,30.6031949 C17.8319489,30.6031949 16.2680511,28.8108626 16.2680511,26.6073482 Z M21.4833866,31.2955272 L21.4833866,32.8629393 C20.9386581,32.7821086 20.3587859,32.7364217 19.7543131,32.7364217 C19.1533546,32.7364217 18.5734824,32.7821086 18.0322684,32.8629393 L18.0322684,31.3025559 C18.5594249,31.5661342 19.1428115,31.713738 19.7543131,31.713738 C20.3693291,31.7102236 20.9527157,31.5626198 21.4833866,31.2955272 Z M24.3265176,36.7638978 L15.2313099,36.7638978 L15.2313099,35.9239617 L24.3265176,35.9239617 L24.3265176,36.7638978 Z" id="Shape"></path>
            </g>
        </g>
    </g>
</svg>